<mxfile host="app.diagrams.net" modified="2023-09-15T13:19:20.574Z" agent="Mozilla/5.0 (Windows NT 10.0; Win64; x64; rv:109.0) Gecko/20100101 Firefox/117.0" etag="Q9i6UNNqSvyIWTi4TNi1" version="21.7.5" type="device">
  <diagram name="Page-1" id="t6VBpq6WZxlVjPO88l4z">
    <mxGraphModel dx="1050" dy="605" grid="1" gridSize="10" guides="1" tooltips="1" connect="1" arrows="1" fold="1" page="1" pageScale="1" pageWidth="850" pageHeight="1100" math="0" shadow="0">
      <root>
        <mxCell id="0" />
        <mxCell id="1" parent="0" />
        <mxCell id="F6WAKykd22EEsa-aBfTH-1" value="" style="rounded=0;whiteSpace=wrap;html=1;" parent="1" vertex="1">
          <mxGeometry x="500" y="130" width="320" height="340" as="geometry" />
        </mxCell>
        <mxCell id="F6WAKykd22EEsa-aBfTH-2" value="" style="rounded=0;whiteSpace=wrap;html=1;" parent="1" vertex="1">
          <mxGeometry x="230" y="220" width="200" height="160" as="geometry" />
        </mxCell>
        <mxCell id="F6WAKykd22EEsa-aBfTH-3" value="" style="image;aspect=fixed;perimeter=ellipsePerimeter;html=1;align=center;shadow=0;dashed=0;spacingTop=3;image=img/lib/active_directory/internet_globe.svg;" parent="1" vertex="1">
          <mxGeometry x="40" y="275" width="50" height="50" as="geometry" />
        </mxCell>
        <mxCell id="F6WAKykd22EEsa-aBfTH-4" style="edgeStyle=orthogonalEdgeStyle;rounded=0;orthogonalLoop=1;jettySize=auto;html=1;exitX=0.5;exitY=1;exitDx=0;exitDy=0;" parent="1" source="F6WAKykd22EEsa-aBfTH-1" target="F6WAKykd22EEsa-aBfTH-1" edge="1">
          <mxGeometry relative="1" as="geometry" />
        </mxCell>
        <mxCell id="F6WAKykd22EEsa-aBfTH-7" value="&lt;div align=&quot;center&quot;&gt;&lt;font style=&quot;font-size: 14px;&quot;&gt;Public Internet&lt;/font&gt;&lt;br&gt;&lt;/div&gt;" style="text;html=1;strokeColor=none;fillColor=none;align=center;verticalAlign=middle;whiteSpace=wrap;rounded=0;" parent="1" vertex="1">
          <mxGeometry x="35" y="230" width="60" height="30" as="geometry" />
        </mxCell>
        <mxCell id="F6WAKykd22EEsa-aBfTH-8" value="" style="endArrow=classic;html=1;rounded=0;entryX=0;entryY=0.5;entryDx=0;entryDy=0;" parent="1" target="F6WAKykd22EEsa-aBfTH-2" edge="1">
          <mxGeometry relative="1" as="geometry">
            <mxPoint x="95" y="299.5" as="sourcePoint" />
            <mxPoint x="195" y="299.5" as="targetPoint" />
          </mxGeometry>
        </mxCell>
        <mxCell id="F6WAKykd22EEsa-aBfTH-9" value="&lt;font style=&quot;font-size: 14px;&quot;&gt;Request&lt;/font&gt;&lt;br&gt;on&lt;br&gt;Port 9000" style="edgeLabel;resizable=0;html=1;align=center;verticalAlign=middle;" parent="F6WAKykd22EEsa-aBfTH-8" connectable="0" vertex="1">
          <mxGeometry relative="1" as="geometry" />
        </mxCell>
        <mxCell id="F6WAKykd22EEsa-aBfTH-12" value="&lt;div&gt;&lt;h3&gt;Internet Exposed Network&lt;/h3&gt;&lt;/div&gt;" style="text;html=1;strokeColor=none;fillColor=none;align=center;verticalAlign=middle;whiteSpace=wrap;rounded=0;" parent="1" vertex="1">
          <mxGeometry x="235" y="180" width="190" height="30" as="geometry" />
        </mxCell>
        <mxCell id="F6WAKykd22EEsa-aBfTH-14" value="&lt;div&gt;&lt;h3&gt;Company Internal Network&lt;/h3&gt;&lt;/div&gt;" style="text;html=1;strokeColor=none;fillColor=none;align=center;verticalAlign=middle;whiteSpace=wrap;rounded=0;" parent="1" vertex="1">
          <mxGeometry x="560" y="90" width="190" height="30" as="geometry" />
        </mxCell>
        <mxCell id="F6WAKykd22EEsa-aBfTH-15" value="" style="verticalLabelPosition=bottom;html=1;verticalAlign=top;strokeWidth=1;align=center;outlineConnect=0;dashed=0;outlineConnect=0;shape=mxgraph.aws3d.application;fillColor=#4286c5;strokeColor=#57A2D8;aspect=fixed;" parent="1" vertex="1">
          <mxGeometry x="299" y="256.2" width="62" height="68.8" as="geometry" />
        </mxCell>
        <mxCell id="F6WAKykd22EEsa-aBfTH-16" value="&lt;b&gt;NodeJS Application&lt;br&gt;&lt;/b&gt;" style="text;html=1;strokeColor=none;fillColor=none;align=center;verticalAlign=middle;whiteSpace=wrap;rounded=0;" parent="1" vertex="1">
          <mxGeometry x="260" y="325" width="140" height="30" as="geometry" />
        </mxCell>
        <mxCell id="F6WAKykd22EEsa-aBfTH-17" value="" style="endArrow=classic;html=1;rounded=0;exitX=0.75;exitY=0.25;exitDx=0;exitDy=0;exitPerimeter=0;" parent="1" source="F6WAKykd22EEsa-aBfTH-2" edge="1">
          <mxGeometry width="50" height="50" relative="1" as="geometry">
            <mxPoint x="400" y="300" as="sourcePoint" />
            <mxPoint x="560" y="210" as="targetPoint" />
          </mxGeometry>
        </mxCell>
        <mxCell id="F6WAKykd22EEsa-aBfTH-18" value="" style="image;aspect=fixed;perimeter=ellipsePerimeter;html=1;align=center;shadow=0;dashed=0;spacingTop=3;image=img/lib/active_directory/database_server.svg;" parent="1" vertex="1">
          <mxGeometry x="570" y="150" width="73.8" height="90" as="geometry" />
        </mxCell>
        <mxCell id="F6WAKykd22EEsa-aBfTH-19" value="&lt;div&gt;5&lt;/div&gt;" style="verticalLabelPosition=bottom;html=1;verticalAlign=top;strokeWidth=1;align=center;outlineConnect=0;dashed=0;outlineConnect=0;shape=mxgraph.aws3d.application;fillColor=#4286c5;strokeColor=#57A2D8;aspect=fixed;" parent="1" vertex="1">
          <mxGeometry x="570" y="370" width="62" height="68.8" as="geometry" />
        </mxCell>
        <mxCell id="F6WAKykd22EEsa-aBfTH-20" value="2" style="verticalLabelPosition=bottom;html=1;verticalAlign=top;strokeWidth=1;align=center;outlineConnect=0;dashed=0;outlineConnect=0;shape=mxgraph.aws3d.application;fillColor=#4286c5;strokeColor=#57A2D8;aspect=fixed;" parent="1" vertex="1">
          <mxGeometry x="570" y="265.6" width="62" height="68.8" as="geometry" />
        </mxCell>
        <mxCell id="F6WAKykd22EEsa-aBfTH-21" value="&lt;b&gt;CouchDB Database Server&lt;/b&gt;&lt;br&gt;Port: 5984" style="text;html=1;strokeColor=none;fillColor=none;align=center;verticalAlign=middle;whiteSpace=wrap;rounded=0;" parent="1" vertex="1">
          <mxGeometry x="660" y="170" width="140" height="30" as="geometry" />
        </mxCell>
        <mxCell id="F6WAKykd22EEsa-aBfTH-22" value="&lt;div&gt;&lt;b&gt;phpMyAdmin App&lt;/b&gt;&lt;/div&gt;Port: 8080" style="text;html=1;strokeColor=none;fillColor=none;align=center;verticalAlign=middle;whiteSpace=wrap;rounded=0;" parent="1" vertex="1">
          <mxGeometry x="660" y="285" width="140" height="30" as="geometry" />
        </mxCell>
        <mxCell id="F6WAKykd22EEsa-aBfTH-23" value="&lt;b&gt;PHP App&lt;br&gt;&lt;/b&gt;&lt;div&gt;&lt;b&gt;(internal app)&lt;br&gt;&lt;/b&gt;Port: 8000&lt;b&gt;&lt;br&gt;&lt;/b&gt;&lt;/div&gt;" style="text;html=1;strokeColor=none;fillColor=none;align=center;verticalAlign=middle;whiteSpace=wrap;rounded=0;" parent="1" vertex="1">
          <mxGeometry x="660" y="389.4" width="140" height="30" as="geometry" />
        </mxCell>
        <mxCell id="F6WAKykd22EEsa-aBfTH-24" value="&lt;font style=&quot;font-size: 14px;&quot; face=&quot;Courier New&quot;&gt;172.18.0.2&lt;/font&gt;&lt;font style=&quot;font-size: 14px;&quot; face=&quot;Courier New&quot;&gt;&lt;br&gt;&lt;br&gt;172.23.0.*&lt;/font&gt;" style="text;html=1;strokeColor=none;fillColor=none;align=center;verticalAlign=middle;whiteSpace=wrap;rounded=0;" parent="1" vertex="1">
          <mxGeometry x="250" y="400" width="160" height="30" as="geometry" />
        </mxCell>
        <mxCell id="F6WAKykd22EEsa-aBfTH-25" value="&lt;font face=&quot;Courier New&quot; style=&quot;font-size: 14px;&quot;&gt;172.23.0.2 - 5&lt;br&gt;&lt;/font&gt;" style="text;html=1;strokeColor=none;fillColor=none;align=center;verticalAlign=middle;whiteSpace=wrap;rounded=0;" parent="1" vertex="1">
          <mxGeometry x="575" y="480" width="160" height="30" as="geometry" />
        </mxCell>
      </root>
    </mxGraphModel>
  </diagram>
</mxfile>
